<svg xmlns="http://www.w3.org/2000/svg" width="120" height="24" viewBox="0 0 120 24"><defs><linearGradient id="a" x1="0%" x2="100%" y1=".687%" y2="99.313%"><stop offset="0%" stop-color="#E9AA43"/><stop offset="19.866%" stop-color="#E09220"/><stop offset="42.128%" stop-color="#E9AA43"/><stop offset="59.674%" stop-color="#F4D37C"/><stop offset="78.015%" stop-color="#E9AA43"/><stop offset="100%" stop-color="#E39A2C"/></linearGradient></defs><g fill="none"><path fill="url(#a)" d="M5.027 7.858C8.775 6.574 9.414 3.23 8.934.157c0-.112.096-.19.193-.143 3.589 1.727 7.625 5.514 7.625 11.218 0 4.374-3.414 8.24-8.376 8.24C3.08 19.472 0 15.717 0 11.232c0-2.614 1.866-5.308 3.877-6.448.097-.064.223 0 .223.11.049.587.208 2.076.862 2.948.016.016.049.016.065.016zm82.84-1.27c.194-.672.922-1.218 1.625-1.218h25.005c.706 0 1.12.547.928 1.218l-3.176 11.086c-.193.672-.92 1.218-1.624 1.218H85.62c-.706 0-1.12-.546-.928-1.218l3.176-11.086z" transform="translate(2 2)"/><path fill="#424242" d="M29.595 17.679l.282-.318.85 2.643-.111.102c-.637.583-1.595.878-2.847.878h-.046c-1.127 0-2.007-.298-2.617-.888-.622-.601-.936-1.485-.936-2.623V10.31H22V7.392h2.169V3.896h3.34v3.498h2.65v2.915h-2.666v6.474c0 .298.073 1.27 1.012 1.27.473 0 .924-.19 1.087-.374h.003zm2.267 3.008V7.41h3.341v13.277h-3.341zM33.516 2c1.108 0 2.009.879 2.009 1.96 0 1.082-.9 1.96-2.009 1.96-1.107 0-2.008-.878-2.008-1.96 0-1.06.92-1.958 2.008-1.958V2zm11.04 5.095c2.888 0 4.48 1.542 4.48 4.342v9.249h-3.342v-8.48h.011c-.068-1.504-.813-2.18-2.388-2.18-1.406 0-2.552.831-3.132 1.567v9.094h-3.342V7.408h3.342V8.81c.967-.893 2.509-1.715 4.37-1.715v.001zM59.99 8.792V2.55h3.342v18.152H59.99v-1.378A5.577 5.577 0 0156.024 21c-3.642 0-6.088-2.79-6.088-6.944 0-4.163 2.446-6.96 6.088-6.96 1.498 0 2.911.611 3.967 1.696zm0 2.797c-.66-.908-1.97-1.562-3.148-1.562-2.065 0-3.454 1.62-3.454 4.029 0 2.4 1.389 4.012 3.454 4.012 1.204 0 2.514-.64 3.148-1.529v-4.95zm10.99-4.493c3.944 0 6.7 2.965 6.7 7.21v.895H67.577c.333 1.865 1.836 3.057 3.898 3.057 1.304 0 2.733-.54 3.557-1.343l.204-.2 1.582 2.23-.146.139c-1.316 1.235-3.263 1.915-5.486 1.915-4.19 0-7.117-2.861-7.117-6.96.016-3.959 2.987-6.944 6.908-6.944l.002.001zm-3.423 5.66h6.862c-.19-2.003-1.886-2.917-3.44-2.917-2.346 0-3.233 1.726-3.422 2.915v.001zM85.76 7.111H86v3.28l-.288-.055a4.483 4.483 0 00-.852-.074c-1.078 0-2.574.734-3.133 1.527v8.88h-3.341V7.41h3.357v1.484c1.106-1.126 2.568-1.783 4.017-1.783v.001z"/><path fill="#FAFBFC" d="M94.806 17c.956 0 1.708-.437 2.244-1.097v-2.22h-2.514v1.076h1.392v.694c-.214.216-.657.443-1.123.443-.957 0-1.652-.807-1.652-1.9 0-1.095.695-1.903 1.652-1.903.561 0 1.012.348 1.249.757l.933-.556c-.395-.684-1.083-1.292-2.18-1.292-1.541 0-2.807 1.163-2.807 2.994C92 15.82 93.266 17 94.807 17zm5.635-.01c-1.588 0-2.75-1.25-2.75-2.996 0-1.744 1.162-2.994 2.751-2.994 1.597 0 2.759 1.25 2.759 2.994 0 1.745-1.162 2.995-2.759 2.995l-.001.001zm0-1.095c.974 0 1.604-.824 1.604-1.9 0-1.086-.63-1.903-1.604-1.903-.972 0-1.596.817-1.596 1.902 0 1.077.624 1.902 1.596 1.902v-.001zm6.9.99V15.8h-2.229v-4.705h-1.122v5.79h3.352zm2.862 0h-2.08v-5.79h2.08c1.652 0 2.797 1.155 2.797 2.9 0 1.744-1.145 2.89-2.797 2.89zm0-1.085c1.043 0 1.652-.824 1.652-1.806 0-1.025-.57-1.814-1.652-1.814h-.957v3.62h.957z"/></g></svg>