<svg xmlns="http://www.w3.org/2000/svg" width="101" height="24" viewBox="0 0 101 24"><defs><linearGradient id="a" x1="100%" x2="0%" y1="0%" y2="100%"><stop offset="0%" stop-color="#FF7854"/><stop offset="100%" stop-color="#FD267D"/></linearGradient><linearGradient id="b" x1="100%" x2="0%" y1="-13.237%" y2="113.874%"><stop offset="0%" stop-color="#FF7854"/><stop offset="100%" stop-color="#FD267D"/></linearGradient></defs><g fill="none"><path fill="url(#a)" d="M5.156 8.095C8.946 6.788 9.591 3.387 9.108.258c0-.113.096-.193.192-.145 3.628 1.757 7.708 5.61 7.708 11.415 0 4.45-3.451 8.385-8.466 8.385-5.354 0-8.465-3.82-8.465-8.384 0-2.661 1.887-5.401 3.918-6.563.097-.064.226 0 .226.113.048.597.21 2.113.87 3 .016.016.048.016.064.016h.001z" transform="translate(2 2)"/><path fill="#424242" d="M29.698 18.226l.285-.328.852 2.72-.111.104c-.639.6-1.6.903-2.858.903h-.046c-1.13 0-2.013-.307-2.625-.913-.624-.62-.94-1.528-.94-2.698v-7.37h-2.178v-3h2.177V4.052h3.354v3.595h2.661v2.999h-2.677v6.659c0 .308.073 1.306 1.016 1.306.474 0 .927-.195 1.09-.385v.001zm2.277 3.092V7.662h3.354v13.657h-3.354zM33.635 2.1c1.111 0 2.015.904 2.015 2.015a2.017 2.017 0 01-2.015 2.016 2.017 2.017 0 01-2.016-2.016c0-1.092.923-2.015 2.016-2.015zm11.08 5.238c2.9 0 4.498 1.587 4.498 4.467v9.514H45.86v-8.723h.011c-.068-1.548-.815-2.241-2.396-2.241-1.412 0-2.562.853-3.145 1.613v9.352h-3.354V7.662h3.354v1.441c.971-.918 2.517-1.765 4.386-1.765zm15.496 1.747V2.662h3.354v18.672H60.21v-1.417c-1.068 1.102-2.488 1.723-3.983 1.723-3.656 0-6.112-2.87-6.112-7.143 0-4.282 2.457-7.16 6.112-7.16 1.504 0 2.924.63 3.984 1.747h-.001zm0 2.877c-.664-.935-1.98-1.608-3.162-1.608-2.073 0-3.466 1.665-3.466 4.144 0 2.47 1.392 4.128 3.467 4.128 1.208 0 2.523-.658 3.162-1.574v-5.09h-.001zM71.24 7.338c3.958 0 6.723 3.051 6.723 7.418v.92H67.827c.335 1.92 1.844 3.144 3.913 3.144 1.31 0 2.746-.555 3.572-1.38l.204-.205 1.587 2.294-.148.143c-1.319 1.27-3.273 1.97-5.504 1.97-4.206 0-7.143-2.944-7.143-7.159.017-4.073 2.997-7.143 6.934-7.143l-.002-.002zm-3.437 5.822h6.89c-.19-2.058-1.893-3-3.453-3-2.355 0-3.246 1.777-3.437 3zm18.272-5.805h.241v3.375l-.288-.058a4.433 4.433 0 00-.856-.077c-1.081 0-2.583.757-3.144 1.573v9.134h-3.354V7.662h3.37V9.19c1.11-1.158 2.578-1.835 4.031-1.835z"/><path fill="url(#b)" d="M97.475 13.462v-1.92h-4.349V6.803h-2.114v4.739h-4.374v1.92h4.374v4.932h2.114v-4.932" transform="translate(2 2)"/></g></svg>